<?xml version="1.0"?>
<svg xmlns="http://www.w3.org/2000/svg" xmlns:xlink="http://www.w3.org/1999/xlink" version="1.1" id="Capa_1" x="0px" y="0px" viewBox="0 0 512 512" style="enable-background:new 0 0 512 512;" xml:space="preserve" width="512px" height="512px" class=""><g><path style="fill:#8F857D" d="M467.692,487.385H49.231c-5.908,0-10.831,4.923-10.831,10.831c0,5.908,4.923,10.831,10.831,10.831  h418.462c5.908,0,10.831-4.923,10.831-10.831C478.523,492.308,473.6,487.385,467.692,487.385z" data-original="#ACB2BA" class="active-path" data-old_color="#ACB2BA"/><polygon style="fill:#800000" points="475.569,236.308 258.954,78.769 36.431,241.231 0,192 258.954,2.954 512,187.077 " data-original="#F26F5A" class="" data-old_color="#F26F5A"/><polygon style="fill:#433633" points="432.246,128.985 432.246,17.723 383.015,17.723 383.015,92.554 " data-original="#F05640" class="" data-old_color="#F05640"/><polygon style="fill:#DECBB7" points="258.954,78.769 64.985,220.554 64.985,509.046 452.923,509.046 452.923,218.585 " data-original="#E8EAE8" class="" data-old_color="#E8EAE8"/><rect x="116.185" y="354.462" style="fill:#433633" width="115.2" height="154.585" data-original="#425A6B" class="" data-old_color="#425A6B"/><g>
	<path style="fill:#8F857D" d="M263.877,260.923h-9.846c-23.631,0-43.323-19.692-43.323-43.323v-9.846   c0-23.631,19.692-43.323,43.323-43.323h9.846c23.631,0,43.323,19.692,43.323,43.323v9.846   C307.2,241.231,287.508,260.923,263.877,260.923z" data-original="#ACB2BA" class="active-path" data-old_color="#ACB2BA"/>
	<path style="fill:#8F857D" d="M402.708,343.631H284.554c-5.908,0-10.831,4.923-10.831,10.831v118.154   c0,5.908,4.923,10.831,10.831,10.831h118.154c5.908,0,10.831-4.923,10.831-10.831V354.462   C413.538,348.554,408.615,343.631,402.708,343.631z M391.877,402.708h-37.415v-37.415h37.415V402.708z M332.8,366.277v37.415   h-37.415v-37.415H332.8z M295.385,425.354H332.8v37.415h-37.415V425.354z M354.462,461.785v-37.415h37.415v37.415H354.462z" data-original="#ACB2BA" class="active-path" data-old_color="#ACB2BA"/>
</g></g> </svg>
