<?xml version="1.0" encoding="UTF-8"?>
<!DOCTYPE svg PUBLIC "-//W3C//DTD SVG 1.1//EN" "http://www.w3.org/Graphics/SVG/1.1/DTD/svg11.dtd">
<!-- Creator: CorelDRAW X6 -->
<svg xmlns="http://www.w3.org/2000/svg" xml:space="preserve" width="550px" height="550px" version="1.1" style="shape-rendering:geometricPrecision; text-rendering:geometricPrecision; image-rendering:optimizeQuality; fill-rule:evenodd; clip-rule:evenodd"
viewBox="0 0 550 550"
 xmlns:xlink="http://www.w3.org/1999/xlink">
 <defs>
  <style type="text/css">
   <![CDATA[
    .fil5 {fill:none}
    .fil1 {fill:#882723}
    .fil2 {fill:#FEFEFE}
    .fil0 {fill:#2B2A29}
    .fil3 {fill:#882723}
    .fil4 {fill:#FEFEFE;fill-rule:nonzero}
   ]]>
  </style>
 </defs>
 <g id="Layer_x0020_1">
  <metadata id="CorelCorpID_0Corel-Layer"/>
  <g id="_721329640">
   <circle class="fil0" cx="275" cy="275" r="256"/>
   <circle class="fil1" cx="275" cy="275" r="254"/>
   <circle class="fil0" cx="275" cy="275" r="241"/>
   <circle class="fil2" cx="275" cy="275" r="239"/>
   <circle class="fil0" cx="275" cy="275" r="220"/>
   <circle class="fil3" cx="275" cy="275" r="218"/>
   <g>
    <path class="fil4" d="M157 263l35 43c5,6 9,10 13,12 3,2 5,2 8,2l0 3 -51 0 0 -3c3,0 5,-1 6,-2 1,-1 1,-2 1,-3 0,-2 -2,-6 -7,-11l-23 -28 -4 3 0 27c0,5 0,8 1,10 1,1 2,2 3,3 2,1 4,1 8,1l0 3 -50 0 0 -3 3 0c3,0 5,-1 7,-2 1,-1 2,-2 3,-3 1,-1 1,-4 1,-9l0 -65c0,-5 0,-8 -1,-9 -1,-1 -2,-2 -3,-3 -2,-1 -4,-1 -7,-1l-3 0 0 -3 49 0 0 3c-3,0 -6,0 -8,1 -1,1 -2,2 -3,3 -1,1 -1,4 -1,9l0 31 36 -29c5,-4 8,-7 8,-10 0,-2 -1,-3 -3,-4 -1,-1 -4,-1 -8,-1l0 -3 38 0 0 3c-3,0 -6,1 -8,2 -2,1 -6,4 -14,10l-29 23z"/>
    <path class="fil4" d="M281 291l27 -65 40 0 0 3 -3 0c-3,0 -5,1 -7,2 -1,1 -2,2 -3,3 -1,1 -1,4 -1,9l0 65c0,5 0,8 1,9 1,1 2,2 3,3 2,1 4,1 7,1l3 0 0 3 -51 0 0 -3 3 0c3,0 5,-1 7,-2 1,-1 2,-2 3,-3 1,-1 1,-4 1,-9l0 -73 -38 90 -2 0 -38 -89 0 69c0,5 0,8 0,9 1,2 2,4 4,6 2,2 5,2 10,2l0 3 -34 0 0 -3 1 0c2,0 4,0 6,-1 2,-1 3,-2 4,-3 1,-1 2,-3 2,-5 0,-1 0,-3 0,-7l0 -62c0,-5 0,-8 -1,-9 -1,-1 -2,-2 -3,-3 -2,-1 -4,-1 -7,-1l-3 0 0 -3 40 0 28 65z"/>
    <path class="fil4" d="M390 231l0 77c0,4 0,7 1,7 0,1 1,2 2,2 1,1 3,1 6,1 8,0 14,-3 18,-8 6,-7 9,-19 9,-35 0,-13 -2,-23 -6,-30 -3,-6 -7,-10 -12,-12 -3,-1 -9,-2 -17,-2zm-37 93l0 -3 3 0c3,0 5,0 7,-1 2,-1 3,-2 3,-4 0,-1 1,-4 1,-9l0 -65c0,-5 0,-8 -1,-9 -1,-1 -2,-2 -3,-3 -2,-1 -4,-1 -7,-1l-3 0 0 -3 44 0c12,0 21,2 28,5 9,4 15,10 20,18 5,8 7,17 7,27 0,7 -1,13 -3,19 -2,6 -5,11 -9,14 -4,4 -8,7 -12,9 -5,2 -10,4 -17,5 -3,1 -8,1 -14,1l-44 0z"/>
   </g>
  </g>
  <rect class="fil5" width="550" height="550"/>
 </g>
</svg>
