<?xml version="1.0"?>
<svg xmlns="http://www.w3.org/2000/svg" xmlns:xlink="http://www.w3.org/1999/xlink" version="1.1" id="Capa_1" x="0px" y="0px" viewBox="0 0 468.72 468.72" style="enable-background:new 0 0 468.72 468.72;" xml:space="preserve" width="512px" height="512px" class=""><g><rect x="312.046" y="308.713" transform="matrix(-0.7071 0.7071 -0.7071 -0.7071 797.0416 330.1519)" style="fill:#433633" width="36.196" height="42.871" data-original="#1C75A1" class="" data-old_color="#1C75A1"/><path style="fill:#DECBB7" d="M371.08,319.515l-51.563,51.563c-2.438,2.438-2.438,6.392,0,8.83l4.615,4.615  c2.438,2.438,6.392,2.438,8.83,0l51.563-51.563c2.438-2.438,2.438-6.392,0-8.83l-4.615-4.615  C377.472,317.076,373.519,317.076,371.08,319.515z" data-original="#FCD462" class="" data-old_color="#decbb7"/><path style="fill:#8F857D" d="M380.313,337.173l-43.138,43.138l82.92,82.92c7.315,7.315,19.175,7.315,26.491,0l16.647-16.647  c7.315-7.315,7.315-19.175,0-26.491L380.313,337.173z" data-original="#27A2DB" class="" data-old_color="#433633"/><ellipse style="fill:#433633" cx="188.258" cy="188.26" rx="188.254" ry="188.254" data-original="#3EA69B" class="" data-old_color="#3EA69B"/><ellipse style="fill:#F6F4F3" cx="188.259" cy="188.251" rx="164.72" ry="164.72" data-original="#EBF0F3" class="active-path" data-old_color="#EBF0F3"/><rect x="89.531" y="174.828" style="fill:#8F857D" width="30.651" height="78.592" data-original="#27A2DB" class="" data-old_color="#433633"/><rect x="144.752" y="205.46" style="fill:#8F857D" width="31.22" height="47.978" data-original="#E56353" class="" data-old_color="#E56353"/><rect x="200.26" y="152.524" style="fill:#DECBB7" width="31.22" height="100.901" data-original="#44C4A1" class="" data-old_color="#44C4A1"/><rect x="255.787" y="123.103" style="fill:#800000" width="31.22" height="130.323" data-original="#DC8744" class="" data-old_color="#DC8744"/></g> </svg>