<?xml version="1.0"?>
<svg xmlns="http://www.w3.org/2000/svg" xmlns:xlink="http://www.w3.org/1999/xlink" version="1.1" id="Capa_1" x="0px" y="0px" viewBox="0 0 468.293 468.293" style="enable-background:new 0 0 468.293 468.293;" xml:space="preserve" width="512px" height="512px" class=""><g><path style="fill:#8F857D" d="M391.302,32.778H76.991c-8.173,0-14.798,6.624-14.798,14.796v405.921  c0,8.172,6.625,14.798,14.798,14.798h314.31c8.173,0,14.798-6.626,14.798-14.798V47.574  C406.099,39.402,399.474,32.778,391.302,32.778z" data-original="#FCD462" class="" data-old_color="#FCD462"/><rect x="91.411" y="66.922" style="fill:#F6F4F3" width="285.446" height="367.216" data-original="#EBF0F3" class="" data-old_color="#EBF0F3"/><path style="fill:#433633" d="M259.769,19.644C259.769,8.796,248.298,0,234.146,0c-14.151,0-25.622,8.796-25.622,19.644h-42.988  v64.909h137.221V19.644H259.769z" data-original="#44C4A1" class="active-path" data-old_color="#800000"/><rect x="165.526" y="130.772" style="fill:#DECBB7" width="191.944" height="30.42" data-original="#D5D6DB" class="" data-old_color="#D5D6DB"/><path style="fill:#800000" d="M122.55,170.165l-20.706-18.63c-2.627-2.37-2.839-6.416-0.475-9.049  c2.376-2.62,6.423-2.839,9.049-0.475l11.313,10.187l26.128-28.192c2.408-2.577,6.454-2.733,9.055-0.344  c2.589,2.408,2.745,6.46,0.344,9.055L122.55,170.165z" data-original="#64798A" class="" data-old_color="#433633"/><rect x="167.874" y="199.967" style="fill:#DECBB7" width="191.944" height="30.42" data-original="#D5D6DB" class="" data-old_color="#D5D6DB"/><path style="fill:#800000" d="M124.889,239.364l-20.706-18.63c-2.627-2.37-2.839-6.416-0.475-9.049  c2.376-2.614,6.423-2.833,9.049-0.475l11.313,10.187l26.128-28.192c2.408-2.583,6.454-2.733,9.055-0.344  c2.589,2.408,2.745,6.46,0.344,9.055L124.889,239.364z" data-original="#64798A" class="" data-old_color="#433633"/><rect x="170.209" y="269.162" style="fill:#DECBB7" width="191.944" height="30.42" data-original="#D5D6DB" class="" data-old_color="#D5D6DB"/><path style="fill:#800000" d="M127.228,308.562l-20.706-18.63c-2.627-2.37-2.839-6.416-0.475-9.049  c2.376-2.614,6.416-2.833,9.049-0.475l11.313,10.187l26.128-28.192c2.408-2.583,6.454-2.733,9.055-0.344  c2.589,2.408,2.745,6.46,0.344,9.055L127.228,308.562z" data-original="#64798A" class="" data-old_color="#433633"/><rect x="172.519" y="338.357" style="fill:#DECBB7" width="191.944" height="30.42" data-original="#D5D6DB" class="" data-old_color="#D5D6DB"/><path style="fill:#800000" d="M129.566,377.754l-20.706-18.63c-2.627-2.37-2.839-6.416-0.475-9.049  c2.376-2.62,6.423-2.833,9.049-0.475l11.313,10.187l26.128-28.192c2.408-2.583,6.448-2.733,9.055-0.344  c2.589,2.408,2.745,6.46,0.344,9.055L129.566,377.754z" data-original="#64798A" class="" data-old_color="#433633"/></g> </svg>
