<?xml version="1.0"?>
<svg xmlns="http://www.w3.org/2000/svg" xmlns:xlink="http://www.w3.org/1999/xlink" version="1.1" id="Capa_1" x="0px" y="0px" viewBox="0 0 512 512" style="enable-background:new 0 0 512 512;" xml:space="preserve" width="512px" height="512px" class=""><g><path style="fill:#DECBB7" d="M482,316v105H30V316c0-73.5,36.4-138.6,91-179.7l15,44.7l15-63.9C182.5,100.6,218.2,91,256,91  s73.5,9.6,105,26.1l15,63.9l15-44.7C445.6,177.4,482,242.5,482,316z" data-original="#FEA832" class="" data-old_color="#FEA832"/><path style="fill:#D2C0AD" d="M482,316v105H256V91c37.8,0,73.5,9.6,105,26.1l15,63.9l15-44.7C445.6,177.4,482,242.5,482,316z" data-original="#FE9923" class="" data-old_color="#DECBB7"/><path style="fill:#800000" d="M331,106v150c0,8.399-6.599,15-15,15H196c-8.401,0-15-6.601-15-15V106c0-24.901,20.099-45,45-45h60  C310.901,61,331,81.099,331,106z" data-original="#FEDB41" class="" data-old_color="#FEDB41"/><path style="fill:#7C2220" d="M376,241c8.291,0,15-6.709,15-15v-89.692c-9.481-7.136-19.438-13.649-30-19.235V226  C361,234.291,367.709,241,376,241z" data-original="#FCBF29" class="active-path" data-old_color="#800000"/><g>
	<path style="fill:#800000" d="M136,241c8.291,0,15-6.709,15-15V117.072c-10.562,5.587-20.519,12.1-30,19.235V226   C121,234.291,127.709,241,136,241z" data-original="#FEDB41" class="" data-old_color="#FEDB41"/>
	<path style="fill:#800000" d="M512,421c0,16.5-13.5,30-30,30H30c-16.5,0-30-13.5-30-30s13.5-30,30-30h452   C498.5,391,512,404.5,512,421z" data-original="#FEDB41" class="" data-old_color="#FEDB41"/>
</g><g>
	<path style="fill:#7C2220" d="M316,271h-60V61h30c24.901,0,45,20.099,45,45v150C331,264.399,324.401,271,316,271z" data-original="#FCBF29" class="active-path" data-old_color="#800000"/>
	<path style="fill:#7C2220" d="M512,421c0,16.5-13.5,30-30,30H256v-60h226C498.5,391,512,404.5,512,421z" data-original="#FCBF29" class="active-path" data-old_color="#800000"/>
</g></g> </svg>
