<?xml version="1.0"?>
<svg xmlns="http://www.w3.org/2000/svg" xmlns:xlink="http://www.w3.org/1999/xlink" version="1.1" id="Capa_1" x="0px" y="0px" viewBox="0 0 451.396 451.396" style="enable-background:new 0 0 451.396 451.396;" xml:space="preserve" width="512px" height="512px" class=""><g><g>
	<path style="fill:#8F857D" d="M401.763,432.624c-8.882,0-15.673-6.792-15.673-15.673v-58.514c0-8.882,6.792-15.673,15.673-15.673   s15.673,6.792,15.673,15.673v58.514C417.437,425.833,410.645,432.624,401.763,432.624z" data-original="#3A2C51" class="" data-old_color="#3A2C51"/>
	<path style="fill:#8F857D" d="M324.441,432.624c-8.882,0-15.673-6.792-15.673-15.673v-104.49c0-8.882,6.792-15.673,15.673-15.673   c8.882,0,15.673,6.792,15.673,15.673v104.49C340.114,425.833,333.322,432.624,324.441,432.624z" data-original="#3A2C51" class="" data-old_color="#3A2C51"/>
	<path style="fill:#8F857D" d="M247.118,432.624c-8.882,0-15.673-6.792-15.673-15.673V272.755c0-8.882,6.792-15.673,15.673-15.673   s15.673,6.792,15.673,15.673v144.196C262.792,425.833,256,432.624,247.118,432.624z" data-original="#3A2C51" class="" data-old_color="#3A2C51"/>
	<path style="fill:#8F857D" d="M169.796,432.624c-8.882,0-15.673-6.792-15.673-15.673V305.669c0-8.882,6.792-15.673,15.673-15.673   s15.673,6.792,15.673,15.673v111.282C185.469,425.833,178.678,432.624,169.796,432.624z" data-original="#3A2C51" class="" data-old_color="#3A2C51"/>
	<path style="fill:#8F857D" d="M92.473,432.624c-8.882,0-15.673-6.792-15.673-15.673V232.526c0-8.882,6.792-15.673,15.673-15.673   s15.673,6.792,15.673,15.673v184.424C108.147,425.833,101.355,432.624,92.473,432.624z" data-original="#3A2C51" class="" data-old_color="#3A2C51"/>
	<path style="fill:#8F857D" d="M15.673,432.624C6.792,432.624,0,425.832,0,416.951V154.159c0-8.882,6.792-15.673,15.673-15.673   s15.673,6.792,15.673,15.673v262.792C31.347,425.833,24.555,432.624,15.673,432.624z" data-original="#3A2C51" class="" data-old_color="#3A2C51"/>
</g><path style="fill:#800000" d="M451.396,230.959V128.037c0-8.882-6.792-15.673-15.673-15.673c-8.882,0-15.673,6.792-15.673,15.673  v65.306l-84.114-82.547c-6.269-6.269-16.196-6.269-21.943,0L279.51,145.8l-91.429-86.204c-6.269-5.747-15.673-5.747-21.943,0.522  l-41.273,41.273l-95.608-78.89c-6.792-5.747-16.718-4.702-21.943,2.09c-5.747,6.792-4.702,16.718,2.09,21.943l106.58,87.771  c6.269,5.224,15.151,4.702,20.898-1.045l40.229-40.229l91.429,86.204c6.269,5.747,15.673,5.747,21.943-0.522l34.482-35.004  l74.71,73.665h-68.441c-8.882,0-15.673,6.792-15.673,15.673c0,8.882,6.792,15.673,15.673,15.673h104.49  c8.882,0,15.673-6.792,15.673-15.673V230.959L451.396,230.959z" data-original="#00BBD3" class="active-path" data-old_color="#00BBD3"/></g> </svg>
