<?xml version="1.0"?>
<svg xmlns="http://www.w3.org/2000/svg" xmlns:xlink="http://www.w3.org/1999/xlink" version="1.1" id="Capa_1" x="0px" y="0px" viewBox="0 0 512 512" style="enable-background:new 0 0 512 512;" xml:space="preserve" width="512px" height="512px" class=""><g><path style="fill:#DECBB7" d="M386.461,0L386.461,0H58.587v89.862h52.516V257.6v201.884c0,29.004,23.512,52.516,52.516,52.516  h275.358V52.516C438.977,23.512,415.465,0,386.461,0z" data-original="#F1F1F2" class="" data-old_color="#F6F4F3"/><path style="fill:#D1BFAC" d="M386.461,0L386.461,0H275.04c0,0,0,481.729,0,512h163.937V52.516C438.977,23.512,415.465,0,386.461,0  z" data-original="#E6E6E6" class="" data-old_color="#DECBB7"/><g>
	<path style="fill:#B3B3B3" d="M58.587,0L58.587,0C29.583,0,6.07,23.512,6.07,52.516v37.346h105.032V52.516   C111.103,23.512,87.59,0,58.587,0z" data-original="#CCCCCC" class="" data-old_color="#CCCCCC"/>
	<path style="fill:#B3B3B3" d="M216.135,422.138v37.346l0,0c0,29.004-23.512,52.516-52.516,52.516h289.796   c29.004,0,52.516-23.512,52.516-52.516v-37.346H216.135z" data-original="#CCCCCC" class="" data-old_color="#CCCCCC"/>
</g><path style="fill:#A8A8A8" d="M275.04,422.138V512h178.375c29.004,0,52.516-23.512,52.516-52.516v-37.346H275.04z" data-original="#B3B3B3" class="active-path" data-old_color="#B3B3B3"/><g>
	<rect x="158.9" y="90.03" style="fill:#8F857D" width="232.27" height="30" data-original="#666666" class="" data-old_color="#666666"/>
	<rect x="158.9" y="162.39" style="fill:#8F857D" width="232.27" height="30" data-original="#666666" class="" data-old_color="#666666"/>
</g><g>
	<rect x="275.041" y="90.03" style="fill:#433633" width="116.14" height="30" data-original="#4D4D4D" class="" data-old_color="#4D4D4D"/>
	<rect x="275.041" y="162.39" style="fill:#433633" width="116.14" height="30" data-original="#4D4D4D" class="" data-old_color="#4D4D4D"/>
</g><rect x="260.041" y="337.62" style="fill:#8F857D" width="30" height="37.938" data-original="#FFDB0C" class="" data-old_color="#FFDB0C"/><rect x="275.041" y="337.62" style="fill:#807770" width="15" height="37.938" data-original="#FBBF00" class="" data-old_color="#8F857D"/><path style="fill:#800000" d="M275.04,347.105c-30.98,0-56.184-25.204-56.184-56.184s25.204-56.184,56.184-56.184  c30.979,0,56.184,25.204,56.184,56.184S306.02,347.105,275.04,347.105z" data-original="#FFA900" class="" data-old_color="#FFA900"/><path style="fill:#7C2220" d="M275.04,347.105c0-38.931,0-91.105,0-112.367c30.979,0,56.184,25.204,56.184,56.184  S306.02,347.105,275.04,347.105z" data-original="#FF8800" class="" data-old_color="#800000"/></g> </svg>
